# xmcd
#
# Track frame offsets:
# 150
# 11770
# 47847
# 60249
# 90588
# 124055
# 158990
# 175932
# 201616
#
# Disc length: 2939 seconds
#
#
# Revision: 0
# Processed by: cddbd v1.4PL0 Copyright (c) Steve Scherf et al.
# Submitted via: FreeRIP 2.11 
#
DISCID=760b7909
DTITLE=Vangelis - Oceanic
DYEAR=1900
DGENRE=Electronic
TTITLE0=Bon Voyage
TTITLE1=Sirens' Whispering
TTITLE2=Dreams of Surf
TTITLE3=Spanish Harbour
TTITLE4=Islands of the Orient
TTITLE5=Fields of Coral
TTITLE6=Aquatic Dance
TTITLE7=Memories of Blue
TTITLE8=Song of the Seas
EXTD=
EXTT0=
EXTT1=
EXTT2=
EXTT3=
EXTT4=
EXTT5=
EXTT6=
EXTT7=
EXTT8=
PLAYORDER=
